#!OML:ASF G:\JayActor3\Patient Classification 1\Patient 1\Session 5\male.ASF
:FULLY-SPECIFIED
:DEGREES
810
root -37.6094 16.7896 -7.4543 1092.07 -256.405 -1068.76
lowerback 3.70821 -2.33743 -1.15991
upperback 3.24386 -3.0676 -0.807383
thorax 1.26962 -1.51714 -0.101444
lowerneck -5.72596 -3.9804 -0.942601
upperneck 2.21326 -5.52078 9.52347
head 2.04836 -2.48718 3.06208
rclavicle -1.2921e-015 -7.15625e-015
rhumerus -33.9626 -2.97747 -87.3275
rradius 35.147
rwrist -1.80979
rhand -20.7425 -5.70733
rfingers 7.12502
rthumb 5.623 -35.6127
lclavicle -1.2921e-015 -7.15625e-015
lhumerus -24.1323 3.67925 79.7865
lradius 22.3337
lwrist 9.48164
lhand -18.2834 15.5302
lfingers 7.12502
lthumb 7.99678 45.3589
rfemur -29.7939 17.0964 21.7786
rtibia 41.3085
rfoot -20.4436 12.1963
rtoes -14.7586
lfemur -3.22484 7.44102 -19.9152
ltibia 23.9453
lfoot -21.0444 4.47442
ltoes -3.58949
811
root -37.6437 16.7893 -7.45845 1092.84 -257.143 -1067.94
lowerback 3.74868 -2.30285 -1.14342
upperback 3.27124 -3.02048 -0.836076
thorax 1.27244 -1.49274 -0.140042
lowerneck -5.74901 -3.88752 -0.88875
upperneck 2.24891 -5.40042 9.38977
head 2.0496 -2.42973 3.01099
rclavicle -2.66371e-014 -1.11319e-014
rhumerus -34.1249 -3.24924 -87.2159
rradius 34.7936
rwrist -1.73187
rhand -20.6273 -5.66482
rfingers 7.12502
rthumb 5.73419 -35.5672
lclavicle -2.66371e-014 -1.11319e-014
lhumerus -24.0424 3.41193 79.7605
lradius 22.789
lwrist 9.8924
lhand -18.3065 15.1512
lfingers 7.12502
lthumb 7.97455 44.9808
rfemur -29.7653 16.6164 21.9395
rtibia 41.7737
rfoot -20.6295 10.9192
rtoes -14.2936
lfemur -3.29751 7.70107 -19.9853
ltibia 24.0602
lfoot -21.0788 4.9886
ltoes -3.68847
812
root -37.6765 16.7887 -7.46183 1093.64 -257.85 -1067.11
lowerback 3.78842 -2.27047 -1.13115
upperback 3.28738 -2.97681 -0.869138
thorax 1.26419 -1.47014 -0.180446
lowerneck -5.76709 -3.79792 -0.825497
upperneck 2.30108 -5.28598 9.24496
head 2.05519 -2.37506 2.9543
rclavicle -6.26172e-015 -1.03368e-014
rhumerus -34.2963 -3.50553 -87.1129
rradius 34.4345
rwrist -1.59927
rhand -20.4954 -5.60571
rfingers 7.12502
rthumb 5.86153 -35.5046
lclavicle -6.26172e-015 -1.03368e-014
lhumerus -23.9689 3.17608 79.7237
lradius 23.2445
lwrist 10.3043
lhand -18.3029 14.7044
lfingers 7.12502
lthumb 7.978 44.5338
rfemur -29.7153 16.1825 22.0698
rtibia 42.2936
rfoot -20.9594 9.21541
rtoes -14.1319
lfemur -3.36484 7.94231 -20.0568
ltibia 24.1637
lfoot -21.1182 5.47458
ltoes -3.76548
813
root -37.7077 16.7885 -7.46455 1094.4 -258.525 -1066.31
lowerback 3.8174 -2.24368 -1.14287
upperback 3.30141 -2.94112 -0.900925
thorax 1.26121 -1.45204 -0.206447
lowerneck -5.83129 -3.69685 -0.749516
upperneck 2.38017 -5.15915 9.07378
head 2.07614 -2.3129 2.88643
rclavicle 3.10104e-014 1.59028e-015
rhumerus -34.4577 -3.7288 -87.0116
rradius 34.0684
rwrist -1.42423
rhand -20.3797 -5.49604
rfingers 7.12502
rthumb 5.97325 -35.3918
lclavicle 3.10104e-014 1.59028e-015
lhumerus -23.9001 2.96817 79.6966
lradius 23.7048
lwrist 10.7026
lhand -18.2993 14.2006
lfingers 7.12502
lthumb 7.98148 44.03
rfemur -29.6497 15.7991 22.1471
rtibia 42.8601
rfoot -21.3342 7.222
rtoes -13.8444
lfemur -3.42502 8.16155 -20.1429
ltibia 24.257
lfoot -21.1608 5.93424
ltoes -3.77645
814
root -37.7373 16.7884 -7.46665 1095.14 -259.169 -1065.52
lowerback 3.83752 -2.22054 -1.17093
upperback 3.3112 -2.9108 -0.930735
thorax 1.25979 -1.43699 -0.221485
lowerneck -5.8868 -3.60568 -0.687498
upperneck 2.47339 -5.04571 8.90649
head 2.10194 -2.25738 2.82226
rclavicle -2.26615e-014 -1.51076e-014
rhumerus -34.6158 -3.92877 -86.9111
rradius 33.703
rwrist -1.20241
rhand -20.2549 -5.40595
rfingers 7.12502
rthumb 6.09374 -35.2983
lclavicle -2.26615e-014 -1.51076e-014
lhumerus -23.8429 2.77253 79.6816
lradius 24.1707
lwrist 11.089
lhand -18.3244 14.0817
lfingers 7.12502
lthumb 7.95724 43.9119
rfemur -29.5608 15.4422 22.1882
rtibia 43.4622
rfoot -21.718 5.01562
rtoes -13.3154
lfemur -3.47846 8.35987 -20.2362
ltibia 24.3421
lfoot -21.201 6.35684
ltoes -3.69668
815
root -37.7664 16.789 -7.46729 1096.09 -259.77 -1064.55
lowerback 3.82028 -2.19918 -1.18597
upperback 3.32899 -2.88203 -0.943055
thorax 1.28769 -1.42286 -0.227641
lowerneck -5.96937 -3.51645 -0.627013
upperneck 2.57342 -4.93544 8.73388
head 2.13527 -2.20285 2.75638
rclavicle 3.20043e-014 6.36111e-015
rhumerus -34.7432 -4.11637 -86.8094
rradius 33.3454
rwrist -0.944923
rhand -20.1587 -5.32256
rfingers 7.12502
rthumb 6.18661 -35.2122
lclavicle 3.20043e-014 6.36111e-015
lhumerus -23.7624 2.58688 79.6854
lradius 24.6353
lwrist 11.4633
lhand -18.3588 14.009
lfingers 7.12502
lthumb 7.92407 43.8405
rfemur -29.4829 15.1266 22.2272
rtibia 44.0871
rfoot -22.0374 2.88622
rtoes -11.9498
lfemur -3.56297 8.54821 -20.2895
ltibia 24.4356
lfoot -21.241 6.73035
ltoes -3.55351
816
root -37.7947 16.7903 -7.46663 1097.23 -260.322 -1063.4
lowerback 3.78566 -2.18136 -1.18623
upperback 3.34721 -2.85757 -0.94476
thorax 1.32555 -1.41085 -0.231773
lowerneck -6.04828 -3.43546 -0.578762
upperneck 2.67384 -4.83547 8.5731
head 2.16981 -2.15341 2.69661
rclavicle -3.67752e-015 3.97569e-015
rhumerus -34.8697 -4.29797 -86.7092
rradius 33.0121
rwrist -0.662429
rhand -20.0431 -5.32774
rfingers 7.12502
rthumb 6.29817 -35.2141
lclavicle -3.67752e-015 3.97569e-015
lhumerus -23.6758 2.40087 79.7034
lradius 25.098
lwrist 11.8257
lhand -18.3986 13.9605
lfingers 7.12502
lthumb 7.88567 43.7934
rfemur -29.4019 14.8142 22.2688
rtibia 44.7308
rfoot -22.4084 0.846545
rtoes -9.9755
lfemur -3.67933 8.73061 -20.3081
ltibia 24.56
lfoot -21.2882 7.06841
ltoes -3.42116
817
root -37.8223 16.7907 -7.46489 1098.58 -260.822 -1062.04
lowerback 3.73772 -2.16808 -1.15928
upperback 3.36417 -2.83861 -0.936861
thorax 1.3687 -1.4013 -0.241597
lowerneck -6.11516 -3.36105 -0.542673
upperneck 2.76704 -4.74299 8.43034
head 2.20151 -2.10786 2.64515
rclavicle -8.15017e-015 -3.18055e-015
rhumerus -35.0033 -4.47218 -86.6162
rradius 32.7114
rwrist -0.373888
rhand -19.9582 -5.37486
rfingers 7.12502
rthumb 6.38013 -35.2588
lclavicle -8.15017e-015 -3.18055e-015
lhumerus -23.5857 2.21413 79.7325
lradius 25.5556
lwrist 12.1702
lhand -18.4413 13.9436
lfingers 7.12502
lthumb 7.84441 43.7781
rfemur -29.2995 14.456 22.3417
rtibia 45.3885
rfoot -22.8632 -1.15361
rtoes -8.0192
lfemur -3.83444 8.90333 -20.2873
ltibia 24.7298
lfoot -21.3529 7.3761
ltoes -3.31758
818
root -37.8488 16.7893 -7.46262 1100.06 -261.271 -1060.56
lowerback 3.68305 -2.15958 -1.11883
upperback 3.38174 -2.82574 -0.924407
thorax 1.41582 -1.39461 -0.2544
lowerneck -6.17661 -3.29176 -0.5109
upperneck 2.85699 -4.65673 8.29632
head 2.23215 -2.06546 2.59738
rclavicle 2.16675e-014 -1.74931e-014
rhumerus -35.1511 -4.65166 -86.5203
rradius 32.4378
rwrist -0.0794653
rhand -19.8837 -5.43514
rfingers 7.12502
rthumb 6.45208 -35.3169
lclavicle 2.16675e-014 -1.74931e-014
lhumerus -23.4975 2.02724 79.7748
lradius 26.0074
lwrist 12.4968
lhand -18.4808 13.9333
lfingers 7.12502
lthumb 7.80625 43.7692
rfemur -29.1659 13.9856 22.4341
rtibia 46.0644
rfoot -23.41 -3.02454
rtoes -6.13688
lfemur -4.01031 9.06596 -20.2487
ltibia 24.9391
lfoot -21.4264 7.65506
ltoes -3.23901
819
root -37.8737 16.7867 -7.46032 1101.6 -261.675 -1059.01
lowerback 3.62952 -2.15514 -1.07026
upperback 3.39868 -2.81826 -0.906594
thorax 1.46157 -1.39051 -0.266043
lowerneck -6.24479 -3.22224 -0.477381
upperneck 2.94905 -4.57022 8.15978
head 2.26477 -2.02283 2.54853
rclavicle -4.57205e-015 -1.19271e-014
rhumerus -35.3088 -4.83728 -86.4137
rradius 32.1789
rwrist 0.216515
rhand -19.8273 -5.47571
rfingers 7.12502
rthumb 6.50656 -35.3558
lclavicle -4.57205e-015 -1.19271e-014
lhumerus -23.414 1.85383 79.8335
lradius 26.4457
lwrist 12.7999
lhand -18.5114 13.9254
lfingers 7.12502
lthumb 7.77676 43.7624
rfemur -29.0041 13.4373 22.5212
rtibia 46.7552
rfoot -24.0077 -4.70747
rtoes -4.47512
lfemur -4.19292 9.20947 -20.2028
ltibia 25.1801
lfoot -21.5135 7.92391
ltoes -3.19827
820
root -37.8966 16.7835 -7.45842 1103.11 -262.045 -1057.47
lowerback 3.58597 -2.15334 -1.02304
upperback 3.40905 -2.81471 -0.891519
thorax 1.49495 -1.38833 -0.279056
lowerneck -6.29898 -3.15625 -0.442503
upperneck 3.04759 -4.48855 8.02486
head 2.29745 -1.98273 2.50006
rclavicle 1.68967e-015 1.59028e-015
rhumerus -35.4891 -5.03724 -86.296
rradius 31.9266
rwrist 0.508517
rhand -19.7718 -5.48984
rfingers 7.12502
rthumb 6.56011 -35.3682
lclavicle 1.68967e-015 1.59028e-015
lhumerus -23.3493 1.69567 79.901
lradius 26.8666
lwrist 13.0878
lhand -18.5123 13.8595
lfingers 7.12502
lthumb 7.77594 43.6966
rfemur -28.8094 12.829 22.5812
rtibia 47.4574
rfoot -24.6225 -6.38909
rtoes -3.24179
lfemur -4.35803 9.32732 -20.1708
ltibia 25.4244
lfoot -21.606 8.19508
ltoes -3.19803
821
root -37.9177 16.78 -7.45696 1104.58 -262.395 -1055.97
lowerback 3.54628 -2.15175 -0.98675
upperback 3.41623 -2.81189 -0.875093
thorax 1.5235 -1.38673 -0.284345
lowerneck -6.39325 -3.07593 -0.386105
upperneck 3.16737 -4.39036 7.86632
head 2.3425 -1.93346 2.44034
rclavicle -1.39149e-014 -5.56597e-015
rhumerus -35.6739 -5.23782 -86.1636
rradius 31.6772
rwrist 0.765941
rhand -19.7309 -5.44586
rfingers 7.12502
rthumb 6.59964 -35.323
lclavicle -1.39149e-014 -5.56597e-015
lhumerus -23.2943 1.56253 79.9839
lradius 27.2703
lwrist 13.3604
lhand -18.478 13.7535
lfingers 7.12502
lthumb 7.80902 43.5893
rfemur -28.5848 12.1903 22.6056
rtibia 48.1599
rfoot -25.1712 -8.11306
rtoes -2.44949
lfemur -4.49958 9.42461 -20.158
ltibia 25.6547
lfoot -21.6939 8.46294
ltoes -3.19886
822
root -37.9363 16.777 -7.45578 1105.93 -262.727 -1054.57
lowerback 3.51279 -2.15034 -0.969575
upperback 3.41886 -2.80988 -0.860997
thorax 1.54475 -1.38587 -0.280982
lowerneck -6.47593 -2.99734 -0.333926
upperneck 3.29886 -4.29463 7.71165
head 2.39003 -1.8854 2.38295
rclavicle 2.45499e-014 1.59028e-015
rhumerus -35.8699 -5.44685 -86.0155
rradius 31.4328
rwrist 0.976179
rhand -19.6294 -5.37622
rfingers 7.12502
rthumb 6.69761 -35.2503
lclavicle 2.45499e-014 1.59028e-015
lhumerus -23.2576 1.43487 80.0857
lradius 27.6595
lwrist 13.6054
lhand -18.4433 13.6704
lfingers 7.12502
lthumb 7.84253 43.5049
rfemur -28.3182 11.5577 22.5864
rtibia 48.8537
rfoot -25.6278 -9.94163
rtoes -2.11492
lfemur -4.59972 9.50236 -20.1693
ltibia 25.854
lfoot -21.7686 8.73259
ltoes -3.21964
823
root -37.9542 16.7747 -7.45439 1107.45 -263.046 -1053.02
lowerback 3.46795 -2.14125 -0.942381
upperback 3.41846 -2.79756 -0.842866
thorax 1.56889 -1.37977 -0.279659
lowerneck -6.56427 -2.91595 -0.276742
upperneck 3.43433 -4.19559 7.55799
head 2.44003 -1.83544 2.32531
rclavicle -3.18055e-015 -4.77083e-015
rhumerus -36.0546 -5.67492 -85.8567
rradius 31.187
rwrist 1.14474
rhand -19.4791 -5.30722
rfingers 7.12502
rthumb 6.84265 -35.1766
lclavicle -3.18055e-015 -4.77083e-015
lhumerus -23.2198 1.29944 80.2051
lradius 28.0363
lwrist 13.8311
lhand -18.408 13.6174
lfingers 7.12502
lthumb 7.87659 43.4506
rfemur -28.046 10.9754 22.5512
rtibia 49.5276
rfoot -25.926 -11.8057
rtoes -2.03874
lfemur -4.69138 9.5646 -20.1762
ltibia 26.0198
lfoot -21.8252 9.00692
ltoes -3.21941
